<svg width="1517" height="1407" xmlns="http://www.w3.org/2000/svg" xmlns:xlink="http://www.w3.org/1999/xlink" xml:space="preserve" overflow="hidden"><defs><filter id="fx0" x="-10%" y="-10%" width="120%" height="120%" filterUnits="userSpaceOnUse" primitiveUnits="userSpaceOnUse"><feComponentTransfer color-interpolation-filters="sRGB"><feFuncR type="discrete" tableValues="0.000000 0.000000"/><feFuncG type="discrete" tableValues="0.000000 0.000000"/><feFuncB type="discrete" tableValues="0.000000 0.000000"/><feFuncA type="linear" slope="0.270588" intercept="0.000000"/></feComponentTransfer><feGaussianBlur stdDeviation="6.111111 6.111111"/></filter><filter id="fx1" x="-10%" y="-10%" width="120%" height="120%" filterUnits="userSpaceOnUse" primitiveUnits="userSpaceOnUse"><feComponentTransfer color-interpolation-filters="sRGB"><feFuncR type="discrete" tableValues="0.000000 0.000000"/><feFuncG type="discrete" tableValues="0.000000 0.000000"/><feFuncB type="discrete" tableValues="0.000000 0.000000"/><feFuncA type="linear" slope="0.270588" intercept="0.000000"/></feComponentTransfer><feGaussianBlur stdDeviation="6.111111 6.111111"/></filter><filter id="fx2" x="-10%" y="-10%" width="120%" height="120%" filterUnits="userSpaceOnUse" primitiveUnits="userSpaceOnUse"><feComponentTransfer color-interpolation-filters="sRGB"><feFuncR type="discrete" tableValues="0.000000 0.000000"/><feFuncG type="discrete" tableValues="0.000000 0.000000"/><feFuncB type="discrete" tableValues="0.000000 0.000000"/><feFuncA type="linear" slope="0.270588" intercept="0.000000"/></feComponentTransfer><feGaussianBlur stdDeviation="6.111111 6.111111"/></filter><filter id="fx3" x="-10%" y="-10%" width="120%" height="120%" filterUnits="userSpaceOnUse" primitiveUnits="userSpaceOnUse"><feComponentTransfer color-interpolation-filters="sRGB"><feFuncR type="discrete" tableValues="0.000000 0.000000"/><feFuncG type="discrete" tableValues="0.000000 0.000000"/><feFuncB type="discrete" tableValues="0.000000 0.000000"/><feFuncA type="linear" slope="0.270588" intercept="0.000000"/></feComponentTransfer><feGaussianBlur stdDeviation="6.111111 6.111111"/></filter><filter id="fx4" x="-10%" y="-10%" width="120%" height="120%" filterUnits="userSpaceOnUse" primitiveUnits="userSpaceOnUse"><feComponentTransfer color-interpolation-filters="sRGB"><feFuncR type="discrete" tableValues="0.000000 0.000000"/><feFuncG type="discrete" tableValues="0.000000 0.000000"/><feFuncB type="discrete" tableValues="0.000000 0.000000"/><feFuncA type="linear" slope="0.270588" intercept="0.000000"/></feComponentTransfer><feGaussianBlur stdDeviation="6.111111 6.111111"/></filter><filter id="fx5" x="-10%" y="-10%" width="120%" height="120%" filterUnits="userSpaceOnUse" primitiveUnits="userSpaceOnUse"><feComponentTransfer color-interpolation-filters="sRGB"><feFuncR type="discrete" tableValues="0.000000 0.000000"/><feFuncG type="discrete" tableValues="0.000000 0.000000"/><feFuncB type="discrete" tableValues="0.000000 0.000000"/><feFuncA type="linear" slope="0.270588" intercept="0.000000"/></feComponentTransfer><feGaussianBlur stdDeviation="6.111111 6.111111"/></filter><filter id="fx6" x="-10%" y="-10%" width="120%" height="120%" filterUnits="userSpaceOnUse" primitiveUnits="userSpaceOnUse"><feComponentTransfer color-interpolation-filters="sRGB"><feFuncR type="discrete" tableValues="0.000000 0.000000"/><feFuncG type="discrete" tableValues="0.000000 0.000000"/><feFuncB type="discrete" tableValues="0.000000 0.000000"/><feFuncA type="linear" slope="0.270588" intercept="0.000000"/></feComponentTransfer><feGaussianBlur stdDeviation="6.111111 6.111111"/></filter><filter id="fx7" x="-10%" y="-10%" width="120%" height="120%" filterUnits="userSpaceOnUse" primitiveUnits="userSpaceOnUse"><feComponentTransfer color-interpolation-filters="sRGB"><feFuncR type="discrete" tableValues="0.000000 0.000000"/><feFuncG type="discrete" tableValues="0.000000 0.000000"/><feFuncB type="discrete" tableValues="0.000000 0.000000"/><feFuncA type="linear" slope="0.270588" intercept="0.000000"/></feComponentTransfer><feGaussianBlur stdDeviation="6.111111 6.111111"/></filter><clipPath id="clip8"><path d="M1380.5 1309C1312.29 1309 1257 1363.17 1257 1430 1257 1496.83 1312.29 1551 1380.5 1551 1448.71 1551 1504 1496.83 1504 1430 1504 1363.17 1448.71 1309 1380.5 1309ZM1214 1265 2731 1265 2731 2672 1214 2672Z" fill-rule="evenodd" clip-rule="evenodd"/></clipPath><clipPath id="clip9"><rect x="1.66675" y="2" width="285.667" height="280.667"/></clipPath><clipPath id="clip10"><path d="M1381 1352C1336.27 1352 1300 1387.59 1300 1431.5 1300 1475.41 1336.27 1511 1381 1511 1425.74 1511 1462 1475.41 1462 1431.5 1462 1387.59 1425.74 1352 1381 1352ZM1214 1265 2731 1265 2731 2672 1214 2672Z" fill-rule="evenodd" clip-rule="evenodd"/></clipPath><clipPath id="clip11"><rect x="1.66675" y="2" width="200.667" height="197.667"/></clipPath><clipPath id="clip12"><path d="M1380.5 2037C1312.29 2037 1257 2090.95 1257 2157.5 1257 2224.05 1312.29 2278 1380.5 2278 1448.71 2278 1504 2224.05 1504 2157.5 1504 2090.95 1448.71 2037 1380.5 2037ZM1214 1265 2731 1265 2731 2672 1214 2672Z" fill-rule="evenodd" clip-rule="evenodd"/></clipPath><clipPath id="clip13"><rect x="1.66675" y="2.00012" width="285.667" height="279.667"/></clipPath><clipPath id="clip14"><path d="M1381 2080C1336.27 2080 1300 2115.37 1300 2159 1300 2202.63 1336.27 2238 1381 2238 1425.74 2238 1462 2202.63 1462 2159 1462 2115.37 1425.74 2080 1381 2080ZM1214 1265 2731 1265 2731 2672 1214 2672Z" fill-rule="evenodd" clip-rule="evenodd"/></clipPath><clipPath id="clip15"><rect x="1.66675" y="2" width="200.667" height="196.667"/></clipPath><clipPath id="clip16"><path d="M1380.5 2390C1312.29 2390 1257 2444.17 1257 2511 1257 2577.83 1312.29 2632 1380.5 2632 1448.71 2632 1504 2577.83 1504 2511 1504 2444.17 1448.71 2390 1380.5 2390ZM1214 1265 2731 1265 2731 2672 1214 2672Z" fill-rule="evenodd" clip-rule="evenodd"/></clipPath><clipPath id="clip17"><rect x="1.66675" y="2" width="285.667" height="280.667"/></clipPath><clipPath id="clip18"><path d="M1381 2433C1336.27 2433 1300 2468.59 1300 2512.5 1300 2556.41 1336.27 2592 1381 2592 1425.74 2592 1462 2556.41 1462 2512.5 1462 2468.59 1425.74 2433 1381 2433ZM1214 1265 2731 1265 2731 2672 1214 2672Z" fill-rule="evenodd" clip-rule="evenodd"/></clipPath><clipPath id="clip19"><rect x="1.66675" y="2" width="200.667" height="197.667"/></clipPath><clipPath id="clip20"><path d="M1380.5 1671C1312.29 1671 1257 1724.95 1257 1791.5 1257 1858.05 1312.29 1912 1380.5 1912 1448.71 1912 1504 1858.05 1504 1791.5 1504 1724.95 1448.71 1671 1380.5 1671ZM1214 1265 2731 1265 2731 2672 1214 2672Z" fill-rule="evenodd" clip-rule="evenodd"/></clipPath><clipPath id="clip21"><rect x="1.66675" y="2" width="285.667" height="279.667"/></clipPath><clipPath id="clip22"><path d="M1381 1714C1336.27 1714 1300 1749.37 1300 1793 1300 1836.63 1336.27 1872 1381 1872 1425.74 1872 1462 1836.63 1462 1793 1462 1749.37 1425.74 1714 1381 1714ZM1214 1265 2731 1265 2731 2672 1214 2672Z" fill-rule="evenodd" clip-rule="evenodd"/></clipPath><clipPath id="clip23"><rect x="1.66675" y="1.99988" width="200.667" height="196.667"/></clipPath></defs><g transform="translate(-1214 -1265)"><g><g clip-path="url(#clip8)"><g clip-path="url(#clip9)" filter="url(#fx0)" transform="translate(1236 1306)"><g><g><path d="M21.0001 142.333C21.0001 75.5069 76.2929 21.3334 144.5 21.3334 212.707 21.3334 268 75.5069 268 142.333 268 209.16 212.707 263.333 144.5 263.333 76.2929 263.333 21.0001 209.16 21.0001 142.333Z" stroke="#D0CECE" stroke-width="2" stroke-linecap="butt" stroke-linejoin="miter" stroke-miterlimit="8" stroke-opacity="1" fill="#DEEBF7" fill-rule="evenodd" fill-opacity="1"/></g></g></g></g><path d="M1257 1430C1257 1363.17 1312.29 1309 1380.5 1309 1448.71 1309 1504 1363.17 1504 1430 1504 1496.83 1448.71 1551 1380.5 1551 1312.29 1551 1257 1496.83 1257 1430Z" stroke="#D0CECE" stroke-width="2.29167" stroke-linecap="butt" stroke-linejoin="miter" stroke-miterlimit="8" stroke-opacity="1" fill="#DEEBF7" fill-rule="evenodd" fill-opacity="1"/><g clip-path="url(#clip10)"><g clip-path="url(#clip11)" filter="url(#fx1)" transform="translate(1279 1349)"><g><g><path d="M21.0001 100.833C21.0001 56.9267 57.265 21.3333 102 21.3333 146.735 21.3333 183 56.9267 183 100.833 183 144.74 146.735 180.333 102 180.333 57.265 180.333 21.0001 144.74 21.0001 100.833Z" stroke="#D0CECE" stroke-width="2" stroke-linecap="butt" stroke-linejoin="miter" stroke-miterlimit="8" stroke-opacity="1" fill="#FFFFFF" fill-rule="evenodd" fill-opacity="1"/></g></g></g></g><path d="M1300 1431.5C1300 1387.59 1336.27 1352 1381 1352 1425.74 1352 1462 1387.59 1462 1431.5 1462 1475.41 1425.74 1511 1381 1511 1336.27 1511 1300 1475.41 1300 1431.5Z" stroke="#D0CECE" stroke-width="2.29167" stroke-linecap="butt" stroke-linejoin="miter" stroke-miterlimit="8" stroke-opacity="1" fill="#FFFFFF" fill-rule="evenodd" fill-opacity="1"/><path d="M1217 1427.5C1217 1338.31 1290.65 1266 1381.5 1266 1472.35 1266 1546 1338.31 1546 1427.5 1546 1516.69 1472.35 1589 1381.5 1589 1290.65 1589 1217 1516.69 1217 1427.5Z" stroke="#D0CECE" stroke-width="2.29167" stroke-linecap="butt" stroke-linejoin="miter" stroke-miterlimit="8" stroke-opacity="1" fill="none" fill-rule="evenodd"/><path d="M1546 1428 1742.62 1430.04" stroke="#D0CECE" stroke-width="2.29167" stroke-linecap="butt" stroke-linejoin="miter" stroke-miterlimit="8" stroke-opacity="1" fill="none" fill-rule="evenodd"/><text fill="#595959" fill-opacity="1" font-family="Malgun Gothic,Malgun Gothic_MSFontService,sans-serif" font-style="normal" font-variant="normal" font-weight="400" font-stretch="normal" font-size="37" text-anchor="start" direction="ltr" writing-mode="lr-tb" unicode-bidi="normal" text-decoration="none" transform="matrix(1 0 0 1 1817.8 1441)">인천광역시</text><text fill="#595959" fill-opacity="1" font-family="Times New Roman,Times New Roman_MSFontService,sans-serif" font-style="normal" font-variant="normal" font-weight="400" font-stretch="normal" font-size="37" text-anchor="start" direction="ltr" writing-mode="lr-tb" unicode-bidi="normal" text-decoration="none" transform="matrix(1 0 0 1 2001.14 1441)">, </text><text fill="#595959" fill-opacity="1" font-family="Malgun Gothic,Malgun Gothic_MSFontService,sans-serif" font-style="normal" font-variant="normal" font-weight="400" font-stretch="normal" font-size="37" text-anchor="start" direction="ltr" writing-mode="lr-tb" unicode-bidi="normal" text-decoration="none" transform="matrix(1 0 0 1 2019.47 1441)">인천다르크협회</text><text fill="#595959" fill-opacity="1" font-family="Malgun Gothic,Malgun Gothic_MSFontService,sans-serif" font-style="normal" font-variant="normal" font-weight="400" font-stretch="normal" font-size="37" text-anchor="start" direction="ltr" writing-mode="lr-tb" unicode-bidi="normal" text-decoration="none" transform="matrix(1 0 0 1 2285.3 1441)">및</text><text fill="#595959" fill-opacity="1" font-family="Malgun Gothic,Malgun Gothic_MSFontService,sans-serif" font-style="normal" font-variant="normal" font-weight="400" font-stretch="normal" font-size="37" text-anchor="start" direction="ltr" writing-mode="lr-tb" unicode-bidi="normal" text-decoration="none" transform="matrix(1 0 0 1 2331.14 1441)">공동가정생활시설</text><text fill="#595959" fill-opacity="1" font-family="Malgun Gothic,Malgun Gothic_MSFontService,sans-serif" font-style="normal" font-variant="normal" font-weight="400" font-stretch="normal" font-size="37" text-anchor="start" direction="ltr" writing-mode="lr-tb" unicode-bidi="normal" text-decoration="none" transform="matrix(1 0 0 1 2633.64 1441)">설립</text><path d="M1743 1430C1743 1424.48 1747.25 1420 1752.5 1420 1757.75 1420 1762 1424.48 1762 1430 1762 1435.52 1757.75 1440 1752.5 1440 1747.25 1440 1743 1435.52 1743 1430Z" fill="#4472C4" fill-rule="evenodd" fill-opacity="1"/><text fill="#7F7F7F" fill-opacity="1" font-family="Times New Roman,Times New Roman_MSFontService,sans-serif" font-style="normal" font-variant="normal" font-weight="700" font-stretch="normal" font-size="41" text-anchor="start" direction="ltr" writing-mode="lr-tb" unicode-bidi="normal" text-decoration="none" transform="matrix(1 0 0 1 1316.72 1449)">2022 </text><text fill="#7F7F7F" fill-opacity="1" font-family="Malgun Gothic,Malgun Gothic_MSFontService,sans-serif" font-style="normal" font-variant="normal" font-weight="700" font-stretch="normal" font-size="32" text-anchor="start" direction="ltr" writing-mode="lr-tb" unicode-bidi="normal" text-decoration="none" transform="matrix(1 0 0 1 1409.53 1449)">년</text><g clip-path="url(#clip12)"><g clip-path="url(#clip13)" filter="url(#fx2)" transform="translate(1236 2034)"><g><g><path d="M21.0001 141.833C21.0001 75.2832 76.2929 21.3335 144.5 21.3335 212.707 21.3335 268 75.2832 268 141.833 268 208.384 212.707 262.333 144.5 262.333 76.2929 262.333 21.0001 208.384 21.0001 141.833Z" stroke="#D0CECE" stroke-width="2" stroke-linecap="butt" stroke-linejoin="miter" stroke-miterlimit="8" stroke-opacity="1" fill="#DEEBF7" fill-rule="evenodd" fill-opacity="1"/></g></g></g></g><path d="M1257 2157.5C1257 2090.95 1312.29 2037 1380.5 2037 1448.71 2037 1504 2090.95 1504 2157.5 1504 2224.05 1448.71 2278 1380.5 2278 1312.29 2278 1257 2224.05 1257 2157.5Z" stroke="#D0CECE" stroke-width="2.29167" stroke-linecap="butt" stroke-linejoin="miter" stroke-miterlimit="8" stroke-opacity="1" fill="#DEEBF7" fill-rule="evenodd" fill-opacity="1"/><g clip-path="url(#clip14)"><g clip-path="url(#clip15)" filter="url(#fx3)" transform="translate(1279 2077)"><g><g><path d="M21.0001 100.333C21.0001 56.7028 57.265 21.3333 102 21.3333 146.735 21.3333 183 56.7028 183 100.333 183 143.964 146.735 179.333 102 179.333 57.265 179.333 21.0001 143.964 21.0001 100.333Z" stroke="#D0CECE" stroke-width="2" stroke-linecap="butt" stroke-linejoin="miter" stroke-miterlimit="8" stroke-opacity="1" fill="#FFFFFF" fill-rule="evenodd" fill-opacity="1"/></g></g></g></g><path d="M1300 2159C1300 2115.37 1336.27 2080 1381 2080 1425.74 2080 1462 2115.37 1462 2159 1462 2202.63 1425.74 2238 1381 2238 1336.27 2238 1300 2202.63 1300 2159Z" stroke="#D0CECE" stroke-width="2.29167" stroke-linecap="butt" stroke-linejoin="miter" stroke-miterlimit="8" stroke-opacity="1" fill="#FFFFFF" fill-rule="evenodd" fill-opacity="1"/><path d="M1217 2155.5C1217 2066.31 1290.65 1994 1381.5 1994 1472.35 1994 1546 2066.31 1546 2155.5 1546 2244.69 1472.35 2317 1381.5 2317 1290.65 2317 1217 2244.69 1217 2155.5Z" stroke="#D0CECE" stroke-width="2.29167" stroke-linecap="butt" stroke-linejoin="miter" stroke-miterlimit="8" stroke-opacity="1" fill="none" fill-rule="evenodd"/><path d="M1546 2155 1742.62 2157.77" stroke="#D0CECE" stroke-width="2.29167" stroke-linecap="butt" stroke-linejoin="miter" stroke-miterlimit="8" stroke-opacity="1" fill="none" fill-rule="evenodd"/><text fill="#595959" fill-opacity="1" font-family="Malgun Gothic,Malgun Gothic_MSFontService,sans-serif" font-style="normal" font-variant="normal" font-weight="400" font-stretch="normal" font-size="37" text-anchor="start" direction="ltr" writing-mode="lr-tb" unicode-bidi="normal" text-decoration="none" transform="matrix(1 0 0 1 1817.8 2178)">인천광역시</text><text fill="#595959" fill-opacity="1" font-family="Times New Roman,Times New Roman_MSFontService,sans-serif" font-style="normal" font-variant="normal" font-weight="400" font-stretch="normal" font-size="37" text-anchor="start" direction="ltr" writing-mode="lr-tb" unicode-bidi="normal" text-decoration="none" transform="matrix(1 0 0 1 2001.14 2178)">, </text><text fill="#595959" fill-opacity="1" font-family="Malgun Gothic,Malgun Gothic_MSFontService,sans-serif" font-style="normal" font-variant="normal" font-weight="400" font-stretch="normal" font-size="37" text-anchor="start" direction="ltr" writing-mode="lr-tb" unicode-bidi="normal" text-decoration="none" transform="matrix(1 0 0 1 2019.47 2178)">법인</text><text fill="#595959" fill-opacity="1" font-family="Malgun Gothic,Malgun Gothic_MSFontService,sans-serif" font-style="normal" font-variant="normal" font-weight="400" font-stretch="normal" font-size="37" text-anchor="start" direction="ltr" writing-mode="lr-tb" unicode-bidi="normal" text-decoration="none" transform="matrix(1 0 0 1 2101.97 2178)">사무실</text><text fill="#595959" fill-opacity="1" font-family="Malgun Gothic,Malgun Gothic_MSFontService,sans-serif" font-style="normal" font-variant="normal" font-weight="400" font-stretch="normal" font-size="37" text-anchor="start" direction="ltr" writing-mode="lr-tb" unicode-bidi="normal" text-decoration="none" transform="matrix(1 0 0 1 2221.14 2178)">및</text><text fill="#595959" fill-opacity="1" font-family="Malgun Gothic,Malgun Gothic_MSFontService,sans-serif" font-style="normal" font-variant="normal" font-weight="400" font-stretch="normal" font-size="37" text-anchor="start" direction="ltr" writing-mode="lr-tb" unicode-bidi="normal" text-decoration="none" transform="matrix(1 0 0 1 2266.97 2178)">주간이용</text><text fill="#595959" fill-opacity="1" font-family="Malgun Gothic,Malgun Gothic_MSFontService,sans-serif" font-style="normal" font-variant="normal" font-weight="400" font-stretch="normal" font-size="37" text-anchor="start" direction="ltr" writing-mode="lr-tb" unicode-bidi="normal" text-decoration="none" transform="matrix(1 0 0 1 2422.8 2178)">센터</text><text fill="#595959" fill-opacity="1" font-family="Malgun Gothic,Malgun Gothic_MSFontService,sans-serif" font-style="normal" font-variant="normal" font-weight="400" font-stretch="normal" font-size="37" text-anchor="start" direction="ltr" writing-mode="lr-tb" unicode-bidi="normal" text-decoration="none" transform="matrix(1 0 0 1 2505.3 2178)">설립</text><path d="M1743 2158C1743 2152.48 1747.25 2148 1752.5 2148 1757.75 2148 1762 2152.48 1762 2158 1762 2163.52 1757.75 2168 1752.5 2168 1747.25 2168 1743 2163.52 1743 2158Z" fill="#4472C4" fill-rule="evenodd" fill-opacity="1"/><text fill="#7F7F7F" fill-opacity="1" font-family="Times New Roman,Times New Roman_MSFontService,sans-serif" font-style="normal" font-variant="normal" font-weight="700" font-stretch="normal" font-size="41" text-anchor="start" direction="ltr" writing-mode="lr-tb" unicode-bidi="normal" text-decoration="none" transform="matrix(1 0 0 1 1316.72 2177)">2024 </text><text fill="#7F7F7F" fill-opacity="1" font-family="Malgun Gothic,Malgun Gothic_MSFontService,sans-serif" font-style="normal" font-variant="normal" font-weight="700" font-stretch="normal" font-size="41" text-anchor="start" direction="ltr" writing-mode="lr-tb" unicode-bidi="normal" text-decoration="none" transform="matrix(1 0 0 1 1409.53 2177)">년</text><g clip-path="url(#clip16)"><g clip-path="url(#clip17)" filter="url(#fx4)" transform="translate(1236 2387)"><g><g><path d="M21.0001 142.333C21.0001 75.507 76.2929 21.3335 144.5 21.3335 212.707 21.3335 268 75.507 268 142.333 268 209.16 212.707 263.333 144.5 263.333 76.2929 263.333 21.0001 209.16 21.0001 142.333Z" stroke="#D0CECE" stroke-width="2" stroke-linecap="butt" stroke-linejoin="miter" stroke-miterlimit="8" stroke-opacity="1" fill="#DEEBF7" fill-rule="evenodd" fill-opacity="1"/></g></g></g></g><path d="M1257 2511C1257 2444.17 1312.29 2390 1380.5 2390 1448.71 2390 1504 2444.17 1504 2511 1504 2577.83 1448.71 2632 1380.5 2632 1312.29 2632 1257 2577.83 1257 2511Z" stroke="#D0CECE" stroke-width="2.29167" stroke-linecap="butt" stroke-linejoin="miter" stroke-miterlimit="8" stroke-opacity="1" fill="#DEEBF7" fill-rule="evenodd" fill-opacity="1"/><g clip-path="url(#clip18)"><g clip-path="url(#clip19)" filter="url(#fx5)" transform="translate(1279 2430)"><g><g><path d="M21.0001 100.833C21.0001 56.9268 57.265 21.3335 102 21.3335 146.735 21.3335 183 56.9268 183 100.833 183 144.74 146.735 180.333 102 180.333 57.265 180.333 21.0001 144.74 21.0001 100.833Z" stroke="#D0CECE" stroke-width="2" stroke-linecap="butt" stroke-linejoin="miter" stroke-miterlimit="8" stroke-opacity="1" fill="#FFFFFF" fill-rule="evenodd" fill-opacity="1"/></g></g></g></g><path d="M1300 2512.5C1300 2468.59 1336.27 2433 1381 2433 1425.74 2433 1462 2468.59 1462 2512.5 1462 2556.41 1425.74 2592 1381 2592 1336.27 2592 1300 2556.41 1300 2512.5Z" stroke="#D0CECE" stroke-width="2.29167" stroke-linecap="butt" stroke-linejoin="miter" stroke-miterlimit="8" stroke-opacity="1" fill="#FFFFFF" fill-rule="evenodd" fill-opacity="1"/><path d="M1217 2508.5C1217 2419.31 1290.65 2347 1381.5 2347 1472.35 2347 1546 2419.31 1546 2508.5 1546 2597.69 1472.35 2670 1381.5 2670 1290.65 2670 1217 2597.69 1217 2508.5Z" stroke="#D0CECE" stroke-width="2.29167" stroke-linecap="butt" stroke-linejoin="miter" stroke-miterlimit="8" stroke-opacity="1" fill="none" fill-rule="evenodd"/><path d="M1546 2509 1742.62 2511.77" stroke="#D0CECE" stroke-width="2.29167" stroke-linecap="butt" stroke-linejoin="miter" stroke-miterlimit="8" stroke-opacity="1" fill="none" fill-rule="evenodd"/><text fill="#595959" fill-opacity="1" font-family="Malgun Gothic,Malgun Gothic_MSFontService,sans-serif" font-style="normal" font-variant="normal" font-weight="400" font-stretch="normal" font-size="37" text-anchor="start" direction="ltr" writing-mode="lr-tb" unicode-bidi="normal" text-decoration="none" transform="matrix(1 0 0 1 1817.8 2532)">인천광역시</text><text fill="#595959" fill-opacity="1" font-family="Times New Roman,Times New Roman_MSFontService,sans-serif" font-style="normal" font-variant="normal" font-weight="400" font-stretch="normal" font-size="37" text-anchor="start" direction="ltr" writing-mode="lr-tb" unicode-bidi="normal" text-decoration="none" transform="matrix(1 0 0 1 2001.14 2532)">, </text><text fill="#595959" fill-opacity="1" font-family="Malgun Gothic,Malgun Gothic_MSFontService,sans-serif" font-style="normal" font-variant="normal" font-weight="400" font-stretch="normal" font-size="37" text-anchor="start" direction="ltr" writing-mode="lr-tb" unicode-bidi="normal" text-decoration="none" transform="matrix(1 0 0 1 2019.47 2532)">인천다르크협회</text><text fill="#595959" fill-opacity="1" font-family="Malgun Gothic,Malgun Gothic_MSFontService,sans-serif" font-style="normal" font-variant="normal" font-weight="400" font-stretch="normal" font-size="37" text-anchor="start" direction="ltr" writing-mode="lr-tb" unicode-bidi="normal" text-decoration="none" transform="matrix(1 0 0 1 2285.3 2532)">사단법인</text><text fill="#595959" fill-opacity="1" font-family="Malgun Gothic,Malgun Gothic_MSFontService,sans-serif" font-style="normal" font-variant="normal" font-weight="400" font-stretch="normal" font-size="37" text-anchor="start" direction="ltr" writing-mode="lr-tb" unicode-bidi="normal" text-decoration="none" transform="matrix(1 0 0 1 2441.14 2532)">설립</text><path d="M1743 2512C1743 2506.48 1747.25 2502 1752.5 2502 1757.75 2502 1762 2506.48 1762 2512 1762 2517.52 1757.75 2522 1752.5 2522 1747.25 2522 1743 2517.52 1743 2512Z" fill="#4472C4" fill-rule="evenodd" fill-opacity="1"/><text fill="#7F7F7F" fill-opacity="1" font-family="Times New Roman,Times New Roman_MSFontService,sans-serif" font-style="normal" font-variant="normal" font-weight="700" font-stretch="normal" font-size="41" text-anchor="start" direction="ltr" writing-mode="lr-tb" unicode-bidi="normal" text-decoration="none" transform="matrix(1 0 0 1 1316.72 2531)">2024 </text><text fill="#7F7F7F" fill-opacity="1" font-family="Malgun Gothic,Malgun Gothic_MSFontService,sans-serif" font-style="normal" font-variant="normal" font-weight="700" font-stretch="normal" font-size="32" text-anchor="start" direction="ltr" writing-mode="lr-tb" unicode-bidi="normal" text-decoration="none" transform="matrix(1 0 0 1 1409.53 2531)">년</text><g clip-path="url(#clip20)"><g clip-path="url(#clip21)" filter="url(#fx6)" transform="translate(1236 1668)"><g><g><path d="M21.0001 141.833C21.0001 75.2829 76.2929 21.3333 144.5 21.3333 212.707 21.3333 268 75.2829 268 141.833 268 208.384 212.707 262.333 144.5 262.333 76.2929 262.333 21.0001 208.384 21.0001 141.833Z" stroke="#D0CECE" stroke-width="2" stroke-linecap="butt" stroke-linejoin="miter" stroke-miterlimit="8" stroke-opacity="1" fill="#DEEBF7" fill-rule="evenodd" fill-opacity="1"/></g></g></g></g><path d="M1257 1791.5C1257 1724.95 1312.29 1671 1380.5 1671 1448.71 1671 1504 1724.95 1504 1791.5 1504 1858.05 1448.71 1912 1380.5 1912 1312.29 1912 1257 1858.05 1257 1791.5Z" stroke="#D0CECE" stroke-width="2.29167" stroke-linecap="butt" stroke-linejoin="miter" stroke-miterlimit="8" stroke-opacity="1" fill="#DEEBF7" fill-rule="evenodd" fill-opacity="1"/><g clip-path="url(#clip22)"><g clip-path="url(#clip23)" filter="url(#fx7)" transform="translate(1279 1711)"><g><g><path d="M21.0001 100.333C21.0001 56.7028 57.265 21.3333 102 21.3333 146.735 21.3333 183 56.7028 183 100.333 183 143.964 146.735 179.333 102 179.333 57.265 179.333 21.0001 143.964 21.0001 100.333Z" stroke="#D0CECE" stroke-width="2" stroke-linecap="butt" stroke-linejoin="miter" stroke-miterlimit="8" stroke-opacity="1" fill="#FFFFFF" fill-rule="evenodd" fill-opacity="1"/></g></g></g></g><path d="M1300 1793C1300 1749.37 1336.27 1714 1381 1714 1425.74 1714 1462 1749.37 1462 1793 1462 1836.63 1425.74 1872 1381 1872 1336.27 1872 1300 1836.63 1300 1793Z" stroke="#D0CECE" stroke-width="2.29167" stroke-linecap="butt" stroke-linejoin="miter" stroke-miterlimit="8" stroke-opacity="1" fill="#FFFFFF" fill-rule="evenodd" fill-opacity="1"/><path d="M1217 1789.5C1217 1700.31 1290.65 1628 1381.5 1628 1472.35 1628 1546 1700.31 1546 1789.5 1546 1878.69 1472.35 1951 1381.5 1951 1290.65 1951 1217 1878.69 1217 1789.5Z" stroke="#D0CECE" stroke-width="2.29167" stroke-linecap="butt" stroke-linejoin="miter" stroke-miterlimit="8" stroke-opacity="1" fill="none" fill-rule="evenodd"/><path d="M1546 1789 1742.62 1791.77" stroke="#D0CECE" stroke-width="2.29167" stroke-linecap="butt" stroke-linejoin="miter" stroke-miterlimit="8" stroke-opacity="1" fill="none" fill-rule="evenodd"/><text fill="#595959" fill-opacity="1" font-family="Malgun Gothic,Malgun Gothic_MSFontService,sans-serif" font-style="normal" font-variant="normal" font-weight="400" font-stretch="normal" font-size="37" text-anchor="start" direction="ltr" writing-mode="lr-tb" unicode-bidi="normal" text-decoration="none" transform="matrix(1 0 0 1 1817.8 1812)">인천광역시</text><text fill="#595959" fill-opacity="1" font-family="Times New Roman,Times New Roman_MSFontService,sans-serif" font-style="normal" font-variant="normal" font-weight="400" font-stretch="normal" font-size="37" text-anchor="start" direction="ltr" writing-mode="lr-tb" unicode-bidi="normal" text-decoration="none" transform="matrix(1 0 0 1 2001.14 1812)">,</text><text fill="#595959" fill-opacity="1" font-family="Malgun Gothic,Malgun Gothic_MSFontService,sans-serif" font-style="normal" font-variant="normal" font-weight="400" font-stretch="normal" font-size="37" text-anchor="start" direction="ltr" writing-mode="lr-tb" unicode-bidi="normal" text-decoration="none" transform="matrix(1 0 0 1 2019.47 1812)">마약</text><text fill="#595959" fill-opacity="1" font-family="Malgun Gothic,Malgun Gothic_MSFontService,sans-serif" font-style="normal" font-variant="normal" font-weight="400" font-stretch="normal" font-size="37" text-anchor="start" direction="ltr" writing-mode="lr-tb" unicode-bidi="normal" text-decoration="none" transform="matrix(1 0 0 1 2101.97 1812)">중독</text><text fill="#595959" fill-opacity="1" font-family="Malgun Gothic,Malgun Gothic_MSFontService,sans-serif" font-style="normal" font-variant="normal" font-weight="400" font-stretch="normal" font-size="37" text-anchor="start" direction="ltr" writing-mode="lr-tb" unicode-bidi="normal" text-decoration="none" transform="matrix(1 0 0 1 2184.47 1812)">연구소</text><text fill="#595959" fill-opacity="1" font-family="Malgun Gothic,Malgun Gothic_MSFontService,sans-serif" font-style="normal" font-variant="normal" font-weight="400" font-stretch="normal" font-size="37" text-anchor="start" direction="ltr" writing-mode="lr-tb" unicode-bidi="normal" text-decoration="none" transform="matrix(1 0 0 1 2303.64 1812)">설립</text><path d="M1743 1792C1743 1786.48 1747.25 1782 1752.5 1782 1757.75 1782 1762 1786.48 1762 1792 1762 1797.52 1757.75 1802 1752.5 1802 1747.25 1802 1743 1797.52 1743 1792Z" fill="#4472C4" fill-rule="evenodd" fill-opacity="1"/><text fill="#7F7F7F" fill-opacity="1" font-family="Times New Roman,Times New Roman_MSFontService,sans-serif" font-style="normal" font-variant="normal" font-weight="700" font-stretch="normal" font-size="41" text-anchor="start" direction="ltr" writing-mode="lr-tb" unicode-bidi="normal" text-decoration="none" transform="matrix(1 0 0 1 1316.72 1811)">2023 </text><text fill="#7F7F7F" fill-opacity="1" font-family="Malgun Gothic,Malgun Gothic_MSFontService,sans-serif" font-style="normal" font-variant="normal" font-weight="700" font-stretch="normal" font-size="32" text-anchor="start" direction="ltr" writing-mode="lr-tb" unicode-bidi="normal" text-decoration="none" transform="matrix(1 0 0 1 1409.53 1811)">년</text></g></g></svg>