<svg width="1961" height="1696" xmlns="http://www.w3.org/2000/svg" xmlns:xlink="http://www.w3.org/1999/xlink" xml:space="preserve" overflow="hidden"><g transform="translate(-857 -939)"><g><path d="M860.5 986.804C860.5 962.335 880.335 942.5 904.803 942.5L2769.2 942.5C2793.66 942.5 2813.5 962.335 2813.5 986.804L2813.5 2587.2C2813.5 2611.66 2793.66 2631.5 2769.2 2631.5L904.803 2631.5C880.335 2631.5 860.5 2611.66 860.5 2587.2Z" stroke="#2E75B6" stroke-width="4.58333" stroke-linecap="butt" stroke-linejoin="miter" stroke-miterlimit="8" stroke-opacity="1" fill="#FFFFFF" fill-rule="evenodd" fill-opacity="1"/><path d="M2742 987C2742 970.984 2754.76 958 2770.5 958 2786.24 958 2799 970.984 2799 987 2799 1003.02 2786.24 1016 2770.5 1016 2754.76 1016 2742 1003.02 2742 987Z" fill="#404040" fill-rule="evenodd" fill-opacity="1"/><path d="M0 0 23.3858 23.9088" stroke="#D9D9D9" stroke-width="4.58333" stroke-linecap="butt" stroke-linejoin="miter" stroke-miterlimit="8" stroke-opacity="1" fill="none" fill-rule="evenodd" transform="matrix(1 0 0 -1 2759.5 999.409)"/><path d="M2759.5 975.5 2782.89 999.409" stroke="#D9D9D9" stroke-width="4.58333" stroke-linecap="butt" stroke-linejoin="miter" stroke-miterlimit="8" stroke-opacity="1" fill="none" fill-rule="evenodd"/><text fill="#2E75B6" fill-opacity="1" font-family="Times New Roman,Times New Roman_MSFontService,sans-serif" font-style="normal" font-variant="normal" font-weight="700" font-stretch="normal" font-size="55" text-anchor="start" direction="ltr" writing-mode="lr-tb" unicode-bidi="normal" text-decoration="none" transform="matrix(1 0 0 1 960.262 1041)">History of DARC Japan.</text></g></g></svg>