<svg width="1233" height="614" xmlns="http://www.w3.org/2000/svg" xmlns:xlink="http://www.w3.org/1999/xlink" xml:space="preserve" overflow="hidden"><defs><filter id="fx0" x="-10%" y="-10%" width="120%" height="120%" filterUnits="userSpaceOnUse" primitiveUnits="userSpaceOnUse"><feComponentTransfer color-interpolation-filters="sRGB"><feFuncR type="discrete" tableValues="0.000000 0.000000"/><feFuncG type="discrete" tableValues="0.000000 0.000000"/><feFuncB type="discrete" tableValues="0.000000 0.000000"/><feFuncA type="linear" slope="0.270588" intercept="0.000000"/></feComponentTransfer><feGaussianBlur stdDeviation="6.111111 6.111111"/></filter><filter id="fx1" x="-10%" y="-10%" width="120%" height="120%" filterUnits="userSpaceOnUse" primitiveUnits="userSpaceOnUse"><feComponentTransfer color-interpolation-filters="sRGB"><feFuncR type="discrete" tableValues="0.000000 0.000000"/><feFuncG type="discrete" tableValues="0.000000 0.000000"/><feFuncB type="discrete" tableValues="0.000000 0.000000"/><feFuncA type="linear" slope="0.270588" intercept="0.000000"/></feComponentTransfer><feGaussianBlur stdDeviation="6.111111 6.111111"/></filter><filter id="fx2" x="-10%" y="-10%" width="120%" height="120%" filterUnits="userSpaceOnUse" primitiveUnits="userSpaceOnUse"><feComponentTransfer color-interpolation-filters="sRGB"><feFuncR type="discrete" tableValues="0.000000 0.000000"/><feFuncG type="discrete" tableValues="0.000000 0.000000"/><feFuncB type="discrete" tableValues="0.000000 0.000000"/><feFuncA type="linear" slope="0.270588" intercept="0.000000"/></feComponentTransfer><feGaussianBlur stdDeviation="6.111111 6.111111"/></filter><filter id="fx3" x="-10%" y="-10%" width="120%" height="120%" filterUnits="userSpaceOnUse" primitiveUnits="userSpaceOnUse"><feComponentTransfer color-interpolation-filters="sRGB"><feFuncR type="discrete" tableValues="0.000000 0.000000"/><feFuncG type="discrete" tableValues="0.000000 0.000000"/><feFuncB type="discrete" tableValues="0.000000 0.000000"/><feFuncA type="linear" slope="0.270588" intercept="0.000000"/></feComponentTransfer><feGaussianBlur stdDeviation="6.111111 6.111111"/></filter><clipPath id="clip4"><path d="M2221 1441C2165.77 1441 2121 1485.1 2121 1539.5 2121 1593.9 2165.77 1638 2221 1638 2276.23 1638 2321 1593.9 2321 1539.5 2321 1485.1 2276.23 1441 2221 1441ZM2085 1402 3318 1402 3318 2016 2085 2016Z" fill-rule="evenodd" clip-rule="evenodd"/></clipPath><clipPath id="clip5"><rect x="1.6665" y="2" width="238.667" height="235.667"/></clipPath><clipPath id="clip6"><path d="M2221.5 1476C2185.33 1476 2156 1504.88 2156 1540.5 2156 1576.12 2185.33 1605 2221.5 1605 2257.67 1605 2287 1576.12 2287 1540.5 2287 1504.88 2257.67 1476 2221.5 1476ZM2085 1402 3318 1402 3318 2016 2085 2016Z" fill-rule="evenodd" clip-rule="evenodd"/></clipPath><clipPath id="clip7"><rect x="1.66675" y="2.00012" width="169.667" height="167.667"/></clipPath><clipPath id="clip8"><path d="M2221 1782C2165.77 1782 2121 1825.88 2121 1880 2121 1934.12 2165.77 1978 2221 1978 2276.23 1978 2321 1934.12 2321 1880 2321 1825.88 2276.23 1782 2221 1782ZM2085 1402 3318 1402 3318 2016 2085 2016Z" fill-rule="evenodd" clip-rule="evenodd"/></clipPath><clipPath id="clip9"><rect x="1.6665" y="2" width="238.667" height="234.667"/></clipPath><clipPath id="clip10"><path d="M2221.5 1816C2185.33 1816 2156 1844.88 2156 1880.5 2156 1916.12 2185.33 1945 2221.5 1945 2257.67 1945 2287 1916.12 2287 1880.5 2287 1844.88 2257.67 1816 2221.5 1816ZM2085 1402 3318 1402 3318 2016 2085 2016Z" fill-rule="evenodd" clip-rule="evenodd"/></clipPath><clipPath id="clip11"><rect x="1.66675" y="2" width="169.667" height="167.667"/></clipPath></defs><g transform="translate(-2085 -1402)"><g><g clip-path="url(#clip4)"><g clip-path="url(#clip5)" filter="url(#fx0)" transform="translate(2100 1438)"><g><g><path d="M21 119.833C21 65.4333 65.7715 21.3334 121 21.3334 176.229 21.3334 221 65.4333 221 119.833 221 174.233 176.229 218.333 121 218.333 65.7715 218.333 21 174.233 21 119.833Z" stroke="#D0CECE" stroke-width="2" stroke-linecap="butt" stroke-linejoin="miter" stroke-miterlimit="8" stroke-opacity="1" fill="#DEEBF7" fill-rule="evenodd" fill-opacity="1"/></g></g></g></g><path d="M2121 1539.5C2121 1485.1 2165.77 1441 2221 1441 2276.23 1441 2321 1485.1 2321 1539.5 2321 1593.9 2276.23 1638 2221 1638 2165.77 1638 2121 1593.9 2121 1539.5Z" stroke="#D0CECE" stroke-width="2.29167" stroke-linecap="butt" stroke-linejoin="miter" stroke-miterlimit="8" stroke-opacity="1" fill="#DEEBF7" fill-rule="evenodd" fill-opacity="1"/><g clip-path="url(#clip6)"><g clip-path="url(#clip7)" filter="url(#fx1)" transform="translate(2135 1473)"><g><g><path d="M21 85.8333C21 50.211 50.3253 21.3334 86.5 21.3334 122.675 21.3334 152 50.211 152 85.8333 152 121.456 122.675 150.333 86.5 150.333 50.3253 150.333 21 121.456 21 85.8333Z" stroke="#D0CECE" stroke-width="2" stroke-linecap="butt" stroke-linejoin="miter" stroke-miterlimit="8" stroke-opacity="1" fill="#FFFFFF" fill-rule="evenodd" fill-opacity="1"/></g></g></g></g><path d="M2156 1540.5C2156 1504.88 2185.33 1476 2221.5 1476 2257.67 1476 2287 1504.88 2287 1540.5 2287 1576.12 2257.67 1605 2221.5 1605 2185.33 1605 2156 1576.12 2156 1540.5Z" stroke="#D0CECE" stroke-width="2.29167" stroke-linecap="butt" stroke-linejoin="miter" stroke-miterlimit="8" stroke-opacity="1" fill="#FFFFFF" fill-rule="evenodd" fill-opacity="1"/><path d="M2088 1538C2088 1465.65 2147.77 1407 2221.5 1407 2295.23 1407 2355 1465.65 2355 1538 2355 1610.35 2295.23 1669 2221.5 1669 2147.77 1669 2088 1610.35 2088 1538Z" stroke="#D0CECE" stroke-width="2.29167" stroke-linecap="butt" stroke-linejoin="miter" stroke-miterlimit="8" stroke-opacity="1" fill="none" fill-rule="evenodd"/><text fill="#595959" fill-opacity="1" font-family="Malgun Gothic,Malgun Gothic_MSFontService,sans-serif" font-style="normal" font-variant="normal" font-weight="400" font-stretch="normal" font-size="37" text-anchor="start" direction="ltr" writing-mode="lr-tb" unicode-bidi="normal" text-decoration="none" transform="matrix(1 0 0 1 2582.12 1559)">김해시</text><text fill="#595959" fill-opacity="1" font-family="Malgun Gothic,Malgun Gothic_MSFontService,sans-serif" font-style="normal" font-variant="normal" font-weight="400" font-stretch="normal" font-size="37" text-anchor="start" direction="ltr" writing-mode="lr-tb" unicode-bidi="normal" text-decoration="none" transform="matrix(1 0 0 1 2701.29 1559)">외동</text><text fill="#595959" fill-opacity="1" font-family="Times New Roman,Times New Roman_MSFontService,sans-serif" font-style="normal" font-variant="normal" font-weight="400" font-stretch="normal" font-size="37" text-anchor="start" direction="ltr" writing-mode="lr-tb" unicode-bidi="normal" text-decoration="none" transform="matrix(1 0 0 1 2774.62 1559)">, </text><text fill="#595959" fill-opacity="1" font-family="Malgun Gothic,Malgun Gothic_MSFontService,sans-serif" font-style="normal" font-variant="normal" font-weight="400" font-stretch="normal" font-size="37" text-anchor="start" direction="ltr" writing-mode="lr-tb" unicode-bidi="normal" text-decoration="none" transform="matrix(1 0 0 1 2792.96 1559)">개소</text><path d="M2515 1540C2515 1535.58 2518.58 1532 2523 1532 2527.42 1532 2531 1535.58 2531 1540 2531 1544.42 2527.42 1548 2523 1548 2518.58 1548 2515 1544.42 2515 1540Z" fill="#4472C4" fill-rule="evenodd" fill-opacity="1"/><text fill="#7F7F7F" fill-opacity="1" font-family="Times New Roman,Times New Roman_MSFontService,sans-serif" font-style="normal" font-variant="normal" font-weight="700" font-stretch="normal" font-size="37" text-anchor="start" direction="ltr" writing-mode="lr-tb" unicode-bidi="normal" text-decoration="none" transform="matrix(1 0 0 1 2169.38 1549)">2020 </text><text fill="#7F7F7F" fill-opacity="1" font-family="Malgun Gothic,Malgun Gothic_MSFontService,sans-serif" font-style="normal" font-variant="normal" font-weight="700" font-stretch="normal" font-size="28" text-anchor="start" direction="ltr" writing-mode="lr-tb" unicode-bidi="normal" text-decoration="none" transform="matrix(1 0 0 1 2251.88 1549)">년</text><g clip-path="url(#clip8)"><g clip-path="url(#clip9)" filter="url(#fx2)" transform="translate(2100 1779)"><g><g><path d="M21 119.333C21 65.2094 65.7715 21.3334 121 21.3334 176.229 21.3334 221 65.2094 221 119.333 221 173.457 176.229 217.333 121 217.333 65.7715 217.333 21 173.457 21 119.333Z" stroke="#D0CECE" stroke-width="2" stroke-linecap="butt" stroke-linejoin="miter" stroke-miterlimit="8" stroke-opacity="1" fill="#DEEBF7" fill-rule="evenodd" fill-opacity="1"/></g></g></g></g><path d="M2121 1880C2121 1825.88 2165.77 1782 2221 1782 2276.23 1782 2321 1825.88 2321 1880 2321 1934.12 2276.23 1978 2221 1978 2165.77 1978 2121 1934.12 2121 1880Z" stroke="#D0CECE" stroke-width="2.29167" stroke-linecap="butt" stroke-linejoin="miter" stroke-miterlimit="8" stroke-opacity="1" fill="#DEEBF7" fill-rule="evenodd" fill-opacity="1"/><g clip-path="url(#clip10)"><g clip-path="url(#clip11)" filter="url(#fx3)" transform="translate(2135 1813)"><g><g><path d="M21 85.8333C21 50.211 50.3253 21.3334 86.5 21.3334 122.675 21.3334 152 50.211 152 85.8333 152 121.456 122.675 150.333 86.5 150.333 50.3253 150.333 21 121.456 21 85.8333Z" stroke="#D0CECE" stroke-width="2" stroke-linecap="butt" stroke-linejoin="miter" stroke-miterlimit="8" stroke-opacity="1" fill="#FFFFFF" fill-rule="evenodd" fill-opacity="1"/></g></g></g></g><path d="M2156 1880.5C2156 1844.88 2185.33 1816 2221.5 1816 2257.67 1816 2287 1844.88 2287 1880.5 2287 1916.12 2257.67 1945 2221.5 1945 2185.33 1945 2156 1916.12 2156 1880.5Z" stroke="#D0CECE" stroke-width="2.29167" stroke-linecap="butt" stroke-linejoin="miter" stroke-miterlimit="8" stroke-opacity="1" fill="#FFFFFF" fill-rule="evenodd" fill-opacity="1"/><path d="M2088 1878C2088 1805.65 2147.77 1747 2221.5 1747 2295.23 1747 2355 1805.65 2355 1878 2355 1950.35 2295.23 2009 2221.5 2009 2147.77 2009 2088 1950.35 2088 1878Z" stroke="#D0CECE" stroke-width="2.29167" stroke-linecap="butt" stroke-linejoin="miter" stroke-miterlimit="8" stroke-opacity="1" fill="none" fill-rule="evenodd"/><text fill="#595959" fill-opacity="1" font-family="Malgun Gothic,Malgun Gothic_MSFontService,sans-serif" font-style="normal" font-variant="normal" font-weight="400" font-stretch="normal" font-size="37" text-anchor="start" direction="ltr" writing-mode="lr-tb" unicode-bidi="normal" text-decoration="none" transform="matrix(1 0 0 1 2582.12 1899)">리본하우스로</text><text fill="#595959" fill-opacity="1" font-family="Malgun Gothic,Malgun Gothic_MSFontService,sans-serif" font-style="normal" font-variant="normal" font-weight="400" font-stretch="normal" font-size="37" text-anchor="start" direction="ltr" writing-mode="lr-tb" unicode-bidi="normal" text-decoration="none" transform="matrix(1 0 0 1 2811.29 1899)">명칭</text><text fill="#595959" fill-opacity="1" font-family="Malgun Gothic,Malgun Gothic_MSFontService,sans-serif" font-style="normal" font-variant="normal" font-weight="400" font-stretch="normal" font-size="37" text-anchor="start" direction="ltr" writing-mode="lr-tb" unicode-bidi="normal" text-decoration="none" transform="matrix(1 0 0 1 2893.79 1899)">변경</text><path d="M2515 1880C2515 1875.58 2518.58 1872 2523 1872 2527.42 1872 2531 1875.58 2531 1880 2531 1884.42 2527.42 1888 2523 1888 2518.58 1888 2515 1884.42 2515 1880Z" fill="#4472C4" fill-rule="evenodd" fill-opacity="1"/><text fill="#7F7F7F" fill-opacity="1" font-family="Times New Roman,Times New Roman_MSFontService,sans-serif" font-style="normal" font-variant="normal" font-weight="700" font-stretch="normal" font-size="37" text-anchor="start" direction="ltr" writing-mode="lr-tb" unicode-bidi="normal" text-decoration="none" transform="matrix(1 0 0 1 2169.38 1894)">2024 </text><text fill="#7F7F7F" fill-opacity="1" font-family="Malgun Gothic,Malgun Gothic_MSFontService,sans-serif" font-style="normal" font-variant="normal" font-weight="700" font-stretch="normal" font-size="28" text-anchor="start" direction="ltr" writing-mode="lr-tb" unicode-bidi="normal" text-decoration="none" transform="matrix(1 0 0 1 2251.88 1894)">년</text><path d="M2355 1878 2514.63 1880.25" stroke="#D0CECE" stroke-width="2.29167" stroke-linecap="butt" stroke-linejoin="miter" stroke-miterlimit="8" stroke-opacity="1" fill="none" fill-rule="evenodd"/><path d="M2355 1538 2514.63 1540.25" stroke="#D0CECE" stroke-width="2.29167" stroke-linecap="butt" stroke-linejoin="miter" stroke-miterlimit="8" stroke-opacity="1" fill="none" fill-rule="evenodd"/></g></g></svg>