<svg width="1233" height="829" xmlns="http://www.w3.org/2000/svg" xmlns:xlink="http://www.w3.org/1999/xlink" xml:space="preserve" overflow="hidden"><defs><filter id="fx0" x="-10%" y="-10%" width="120%" height="120%" filterUnits="userSpaceOnUse" primitiveUnits="userSpaceOnUse"><feComponentTransfer color-interpolation-filters="sRGB"><feFuncR type="discrete" tableValues="0.000000 0.000000"/><feFuncG type="discrete" tableValues="0.000000 0.000000"/><feFuncB type="discrete" tableValues="0.000000 0.000000"/><feFuncA type="linear" slope="0.270588" intercept="0.000000"/></feComponentTransfer><feGaussianBlur stdDeviation="6.111111 6.111111"/></filter><filter id="fx1" x="-10%" y="-10%" width="120%" height="120%" filterUnits="userSpaceOnUse" primitiveUnits="userSpaceOnUse"><feComponentTransfer color-interpolation-filters="sRGB"><feFuncR type="discrete" tableValues="0.000000 0.000000"/><feFuncG type="discrete" tableValues="0.000000 0.000000"/><feFuncB type="discrete" tableValues="0.000000 0.000000"/><feFuncA type="linear" slope="0.270588" intercept="0.000000"/></feComponentTransfer><feGaussianBlur stdDeviation="6.111111 6.111111"/></filter><filter id="fx2" x="-10%" y="-10%" width="120%" height="120%" filterUnits="userSpaceOnUse" primitiveUnits="userSpaceOnUse"><feComponentTransfer color-interpolation-filters="sRGB"><feFuncR type="discrete" tableValues="0.000000 0.000000"/><feFuncG type="discrete" tableValues="0.000000 0.000000"/><feFuncB type="discrete" tableValues="0.000000 0.000000"/><feFuncA type="linear" slope="0.270588" intercept="0.000000"/></feComponentTransfer><feGaussianBlur stdDeviation="6.111111 6.111111"/></filter><filter id="fx3" x="-10%" y="-10%" width="120%" height="120%" filterUnits="userSpaceOnUse" primitiveUnits="userSpaceOnUse"><feComponentTransfer color-interpolation-filters="sRGB"><feFuncR type="discrete" tableValues="0.000000 0.000000"/><feFuncG type="discrete" tableValues="0.000000 0.000000"/><feFuncB type="discrete" tableValues="0.000000 0.000000"/><feFuncA type="linear" slope="0.270588" intercept="0.000000"/></feComponentTransfer><feGaussianBlur stdDeviation="6.111111 6.111111"/></filter><filter id="fx4" x="-10%" y="-10%" width="120%" height="120%" filterUnits="userSpaceOnUse" primitiveUnits="userSpaceOnUse"><feComponentTransfer color-interpolation-filters="sRGB"><feFuncR type="discrete" tableValues="0.000000 0.000000"/><feFuncG type="discrete" tableValues="0.000000 0.000000"/><feFuncB type="discrete" tableValues="0.000000 0.000000"/><feFuncA type="linear" slope="0.270588" intercept="0.000000"/></feComponentTransfer><feGaussianBlur stdDeviation="6.111111 6.111111"/></filter><filter id="fx5" x="-10%" y="-10%" width="120%" height="120%" filterUnits="userSpaceOnUse" primitiveUnits="userSpaceOnUse"><feComponentTransfer color-interpolation-filters="sRGB"><feFuncR type="discrete" tableValues="0.000000 0.000000"/><feFuncG type="discrete" tableValues="0.000000 0.000000"/><feFuncB type="discrete" tableValues="0.000000 0.000000"/><feFuncA type="linear" slope="0.270588" intercept="0.000000"/></feComponentTransfer><feGaussianBlur stdDeviation="6.111111 6.111111"/></filter><clipPath id="clip6"><path d="M3044 1898C2988.77 1898 2944 1941.88 2944 1996 2944 2050.12 2988.77 2094 3044 2094 3099.23 2094 3144 2050.12 3144 1996 3144 1941.88 3099.23 1898 3044 1898ZM2905 1581 4138 1581 4138 2410 2905 2410Z" fill-rule="evenodd" clip-rule="evenodd"/></clipPath><clipPath id="clip7"><rect x="1.6665" y="1.99988" width="238.667" height="234.667"/></clipPath><clipPath id="clip8"><path d="M3044.5 1933C3008.33 1933 2979 1961.88 2979 1997.5 2979 2033.12 3008.33 2062 3044.5 2062 3080.67 2062 3110 2033.12 3110 1997.5 3110 1961.88 3080.67 1933 3044.5 1933ZM2905 1581 4138 1581 4138 2410 2905 2410Z" fill-rule="evenodd" clip-rule="evenodd"/></clipPath><clipPath id="clip9"><rect x="1.6665" y="1.99988" width="169.667" height="167.667"/></clipPath><clipPath id="clip10"><path d="M3044 1621C2988.77 1621 2944 1664.88 2944 1719 2944 1773.12 2988.77 1817 3044 1817 3099.23 1817 3144 1773.12 3144 1719 3144 1664.88 3099.23 1621 3044 1621ZM2905 1581 4138 1581 4138 2410 2905 2410Z" fill-rule="evenodd" clip-rule="evenodd"/></clipPath><clipPath id="clip11"><rect x="1.6665" y="2.00012" width="238.667" height="234.667"/></clipPath><clipPath id="clip12"><path d="M3044.5 1656C3008.33 1656 2979 1684.88 2979 1720.5 2979 1756.12 3008.33 1785 3044.5 1785 3080.67 1785 3110 1756.12 3110 1720.5 3110 1684.88 3080.67 1656 3044.5 1656ZM2905 1581 4138 1581 4138 2410 2905 2410Z" fill-rule="evenodd" clip-rule="evenodd"/></clipPath><clipPath id="clip13"><rect x="1.6665" y="1.99988" width="169.667" height="167.667"/></clipPath><clipPath id="clip14"><path d="M3044 2173C2988.77 2173 2944 2216.88 2944 2271 2944 2325.12 2988.77 2369 3044 2369 3099.23 2369 3144 2325.12 3144 2271 3144 2216.88 3099.23 2173 3044 2173ZM2905 1581 4138 1581 4138 2410 2905 2410Z" fill-rule="evenodd" clip-rule="evenodd"/></clipPath><clipPath id="clip15"><rect x="1.6665" y="1.99976" width="238.667" height="234.667"/></clipPath><clipPath id="clip16"><path d="M3044.5 2208C3008.33 2208 2979 2236.88 2979 2272.5 2979 2308.12 3008.33 2337 3044.5 2337 3080.67 2337 3110 2308.12 3110 2272.5 3110 2236.88 3080.67 2208 3044.5 2208ZM2905 1581 4138 1581 4138 2410 2905 2410Z" fill-rule="evenodd" clip-rule="evenodd"/></clipPath><clipPath id="clip17"><rect x="1.6665" y="2" width="169.667" height="167.667"/></clipPath></defs><g transform="translate(-2905 -1581)"><g><g clip-path="url(#clip6)"><g clip-path="url(#clip7)" filter="url(#fx0)" transform="translate(2923 1895)"><g><g><path d="M20.9998 119.333C20.9998 65.2093 65.7713 21.3331 121 21.3331 176.228 21.3331 221 65.2093 221 119.333 221 173.457 176.228 217.333 121 217.333 65.7713 217.333 20.9998 173.457 20.9998 119.333Z" stroke="#D0CECE" stroke-width="2" stroke-linecap="butt" stroke-linejoin="miter" stroke-miterlimit="8" stroke-opacity="1" fill="#DEEBF7" fill-rule="evenodd" fill-opacity="1"/></g></g></g></g><path d="M2944 1996C2944 1941.88 2988.77 1898 3044 1898 3099.23 1898 3144 1941.88 3144 1996 3144 2050.12 3099.23 2094 3044 2094 2988.77 2094 2944 2050.12 2944 1996Z" stroke="#D0CECE" stroke-width="2.29167" stroke-linecap="butt" stroke-linejoin="miter" stroke-miterlimit="8" stroke-opacity="1" fill="#DEEBF7" fill-rule="evenodd" fill-opacity="1"/><g clip-path="url(#clip8)"><g clip-path="url(#clip9)" filter="url(#fx1)" transform="translate(2958 1930)"><g><g><path d="M21 85.8334C21 50.2109 50.3253 21.3333 86.5 21.3333 122.675 21.3333 152 50.2109 152 85.8334 152 121.456 122.675 150.334 86.5 150.334 50.3253 150.334 21 121.456 21 85.8334Z" stroke="#D0CECE" stroke-width="2" stroke-linecap="butt" stroke-linejoin="miter" stroke-miterlimit="8" stroke-opacity="1" fill="#FFFFFF" fill-rule="evenodd" fill-opacity="1"/></g></g></g></g><path d="M2979 1997.5C2979 1961.88 3008.33 1933 3044.5 1933 3080.67 1933 3110 1961.88 3110 1997.5 3110 2033.12 3080.67 2062 3044.5 2062 3008.33 2062 2979 2033.12 2979 1997.5Z" stroke="#D0CECE" stroke-width="2.29167" stroke-linecap="butt" stroke-linejoin="miter" stroke-miterlimit="8" stroke-opacity="1" fill="#FFFFFF" fill-rule="evenodd" fill-opacity="1"/><path d="M2911 1994C2911 1921.65 2970.99 1863 3045 1863 3119.01 1863 3179 1921.65 3179 1994 3179 2066.35 3119.01 2125 3045 2125 2970.99 2125 2911 2066.35 2911 1994Z" stroke="#D0CECE" stroke-width="2.29167" stroke-linecap="butt" stroke-linejoin="miter" stroke-miterlimit="8" stroke-opacity="1" fill="none" fill-rule="evenodd"/><text fill="#595959" fill-opacity="1" font-family="Malgun Gothic,Malgun Gothic_MSFontService,sans-serif" font-style="normal" font-variant="normal" font-weight="400" font-stretch="normal" font-size="37" text-anchor="start" direction="ltr" writing-mode="lr-tb" unicode-bidi="normal" text-decoration="none" transform="matrix(1 0 0 1 3405.42 2015)">사단법인</text><text fill="#595959" fill-opacity="1" font-family="Malgun Gothic,Malgun Gothic_MSFontService,sans-serif" font-style="normal" font-variant="normal" font-weight="400" font-stretch="normal" font-size="37" text-anchor="start" direction="ltr" writing-mode="lr-tb" unicode-bidi="normal" text-decoration="none" transform="matrix(1 0 0 1 3561.26 2015)">설립</text><path d="M3338 1997C3338 1992.58 3341.58 1989 3346 1989 3350.42 1989 3354 1992.58 3354 1997 3354 2001.42 3350.42 2005 3346 2005 3341.58 2005 3338 2001.42 3338 1997Z" fill="#4472C4" fill-rule="evenodd" fill-opacity="1"/><text fill="#7F7F7F" fill-opacity="1" font-family="Times New Roman,Times New Roman_MSFontService,sans-serif" font-style="normal" font-variant="normal" font-weight="700" font-stretch="normal" font-size="37" text-anchor="start" direction="ltr" writing-mode="lr-tb" unicode-bidi="normal" text-decoration="none" transform="matrix(1 0 0 1 2992.68 2010)">2022 </text><text fill="#7F7F7F" fill-opacity="1" font-family="Malgun Gothic,Malgun Gothic_MSFontService,sans-serif" font-style="normal" font-variant="normal" font-weight="700" font-stretch="normal" font-size="28" text-anchor="start" direction="ltr" writing-mode="lr-tb" unicode-bidi="normal" text-decoration="none" transform="matrix(1 0 0 1 3075.18 2010)">년</text><path d="M3179 1994 3338.63 1996.25" stroke="#D0CECE" stroke-width="2.29167" stroke-linecap="butt" stroke-linejoin="miter" stroke-miterlimit="8" stroke-opacity="1" fill="none" fill-rule="evenodd"/><g clip-path="url(#clip10)"><g clip-path="url(#clip11)" filter="url(#fx2)" transform="translate(2923 1618)"><g><g><path d="M20.9998 119.333C20.9998 65.2096 65.7713 21.3335 121 21.3335 176.228 21.3335 221 65.2096 221 119.333 221 173.457 176.228 217.333 121 217.333 65.7713 217.333 20.9998 173.457 20.9998 119.333Z" stroke="#D0CECE" stroke-width="2" stroke-linecap="butt" stroke-linejoin="miter" stroke-miterlimit="8" stroke-opacity="1" fill="#DEEBF7" fill-rule="evenodd" fill-opacity="1"/></g></g></g></g><path d="M2944 1719C2944 1664.88 2988.77 1621 3044 1621 3099.23 1621 3144 1664.88 3144 1719 3144 1773.12 3099.23 1817 3044 1817 2988.77 1817 2944 1773.12 2944 1719Z" stroke="#D0CECE" stroke-width="2.29167" stroke-linecap="butt" stroke-linejoin="miter" stroke-miterlimit="8" stroke-opacity="1" fill="#DEEBF7" fill-rule="evenodd" fill-opacity="1"/><g clip-path="url(#clip12)"><g clip-path="url(#clip13)" filter="url(#fx3)" transform="translate(2958 1653)"><g><g><path d="M21 85.8333C21 50.2108 50.3253 21.3331 86.5 21.3331 122.675 21.3331 152 50.2108 152 85.8333 152 121.456 122.675 150.333 86.5 150.333 50.3253 150.333 21 121.456 21 85.8333Z" stroke="#D0CECE" stroke-width="2" stroke-linecap="butt" stroke-linejoin="miter" stroke-miterlimit="8" stroke-opacity="1" fill="#FFFFFF" fill-rule="evenodd" fill-opacity="1"/></g></g></g></g><path d="M2979 1720.5C2979 1684.88 3008.33 1656 3044.5 1656 3080.67 1656 3110 1684.88 3110 1720.5 3110 1756.12 3080.67 1785 3044.5 1785 3008.33 1785 2979 1756.12 2979 1720.5Z" stroke="#D0CECE" stroke-width="2.29167" stroke-linecap="butt" stroke-linejoin="miter" stroke-miterlimit="8" stroke-opacity="1" fill="#FFFFFF" fill-rule="evenodd" fill-opacity="1"/><path d="M2911 1717.5C2911 1644.87 2970.99 1586 3045 1586 3119.01 1586 3179 1644.87 3179 1717.5 3179 1790.13 3119.01 1849 3045 1849 2970.99 1849 2911 1790.13 2911 1717.5Z" stroke="#D0CECE" stroke-width="2.29167" stroke-linecap="butt" stroke-linejoin="miter" stroke-miterlimit="8" stroke-opacity="1" fill="none" fill-rule="evenodd"/><text fill="#595959" fill-opacity="1" font-family="Malgun Gothic,Malgun Gothic_MSFontService,sans-serif" font-style="normal" font-variant="normal" font-weight="400" font-stretch="normal" font-size="37" text-anchor="start" direction="ltr" writing-mode="lr-tb" unicode-bidi="normal" text-decoration="none" transform="matrix(1 0 0 1 3405.42 1738)">남양주시</text><text fill="#595959" fill-opacity="1" font-family="Malgun Gothic,Malgun Gothic_MSFontService,sans-serif" font-style="normal" font-variant="normal" font-weight="400" font-stretch="normal" font-size="37" text-anchor="start" direction="ltr" writing-mode="lr-tb" unicode-bidi="normal" text-decoration="none" transform="matrix(1 0 0 1 3561.26 1738)">퇴계원</text><text fill="#595959" fill-opacity="1" font-family="Malgun Gothic,Malgun Gothic_MSFontService,sans-serif" font-style="normal" font-variant="normal" font-weight="400" font-stretch="normal" font-size="37" text-anchor="start" direction="ltr" writing-mode="lr-tb" unicode-bidi="normal" text-decoration="none" transform="matrix(1 0 0 1 3680.42 1738)">개소</text><path d="M3338 1720C3338 1715.58 3341.58 1712 3346 1712 3350.42 1712 3354 1715.58 3354 1720 3354 1724.42 3350.42 1728 3346 1728 3341.58 1728 3338 1724.42 3338 1720Z" fill="#4472C4" fill-rule="evenodd" fill-opacity="1"/><text fill="#7F7F7F" fill-opacity="1" font-family="Times New Roman,Times New Roman_MSFontService,sans-serif" font-style="normal" font-variant="normal" font-weight="700" font-stretch="normal" font-size="37" text-anchor="start" direction="ltr" writing-mode="lr-tb" unicode-bidi="normal" text-decoration="none" transform="matrix(1 0 0 1 2992.68 1729)">2019 </text><text fill="#7F7F7F" fill-opacity="1" font-family="Malgun Gothic,Malgun Gothic_MSFontService,sans-serif" font-style="normal" font-variant="normal" font-weight="700" font-stretch="normal" font-size="28" text-anchor="start" direction="ltr" writing-mode="lr-tb" unicode-bidi="normal" text-decoration="none" transform="matrix(1 0 0 1 3075.18 1729)">년</text><path d="M3179 1717 3338.63 1719.25" stroke="#D0CECE" stroke-width="2.29167" stroke-linecap="butt" stroke-linejoin="miter" stroke-miterlimit="8" stroke-opacity="1" fill="none" fill-rule="evenodd"/><g clip-path="url(#clip14)"><g clip-path="url(#clip15)" filter="url(#fx4)" transform="translate(2923 2170)"><g><g><path d="M20.9998 119.333C20.9998 65.2094 65.7713 21.3333 121 21.3333 176.228 21.3333 221 65.2094 221 119.333 221 173.457 176.228 217.334 121 217.334 65.7713 217.334 20.9998 173.457 20.9998 119.333Z" stroke="#D0CECE" stroke-width="2" stroke-linecap="butt" stroke-linejoin="miter" stroke-miterlimit="8" stroke-opacity="1" fill="#DEEBF7" fill-rule="evenodd" fill-opacity="1"/></g></g></g></g><path d="M2944 2271C2944 2216.88 2988.77 2173 3044 2173 3099.23 2173 3144 2216.88 3144 2271 3144 2325.12 3099.23 2369 3044 2369 2988.77 2369 2944 2325.12 2944 2271Z" stroke="#D0CECE" stroke-width="2.29167" stroke-linecap="butt" stroke-linejoin="miter" stroke-miterlimit="8" stroke-opacity="1" fill="#DEEBF7" fill-rule="evenodd" fill-opacity="1"/><g clip-path="url(#clip16)"><g clip-path="url(#clip17)" filter="url(#fx5)" transform="translate(2958 2205)"><g><g><path d="M21 85.8334C21 50.2109 50.3253 21.3333 86.5 21.3333 122.675 21.3333 152 50.2109 152 85.8334 152 121.456 122.675 150.334 86.5 150.334 50.3253 150.334 21 121.456 21 85.8334Z" stroke="#D0CECE" stroke-width="2" stroke-linecap="butt" stroke-linejoin="miter" stroke-miterlimit="8" stroke-opacity="1" fill="#FFFFFF" fill-rule="evenodd" fill-opacity="1"/></g></g></g></g><path d="M2979 2272.5C2979 2236.88 3008.33 2208 3044.5 2208 3080.67 2208 3110 2236.88 3110 2272.5 3110 2308.12 3080.67 2337 3044.5 2337 3008.33 2337 2979 2308.12 2979 2272.5Z" stroke="#D0CECE" stroke-width="2.29167" stroke-linecap="butt" stroke-linejoin="miter" stroke-miterlimit="8" stroke-opacity="1" fill="#FFFFFF" fill-rule="evenodd" fill-opacity="1"/><path d="M2911 2269C2911 2196.65 2970.99 2138 3045 2138 3119.01 2138 3179 2196.65 3179 2269 3179 2341.35 3119.01 2400 3045 2400 2970.99 2400 2911 2341.35 2911 2269Z" stroke="#D0CECE" stroke-width="2.29167" stroke-linecap="butt" stroke-linejoin="miter" stroke-miterlimit="8" stroke-opacity="1" fill="none" fill-rule="evenodd"/><text fill="#595959" fill-opacity="1" font-family="Malgun Gothic,Malgun Gothic_MSFontService,sans-serif" font-style="normal" font-variant="normal" font-weight="400" font-stretch="normal" font-size="37" text-anchor="start" direction="ltr" writing-mode="lr-tb" unicode-bidi="normal" text-decoration="none" transform="matrix(1 0 0 1 3405.42 2290)">패쇄</text><path d="M3338 2271.5C3338 2266.81 3341.58 2263 3346 2263 3350.42 2263 3354 2266.81 3354 2271.5 3354 2276.19 3350.42 2280 3346 2280 3341.58 2280 3338 2276.19 3338 2271.5Z" fill="#4472C4" fill-rule="evenodd" fill-opacity="1"/><text fill="#7F7F7F" fill-opacity="1" font-family="Times New Roman,Times New Roman_MSFontService,sans-serif" font-style="normal" font-variant="normal" font-weight="700" font-stretch="normal" font-size="37" text-anchor="start" direction="ltr" writing-mode="lr-tb" unicode-bidi="normal" text-decoration="none" transform="matrix(1 0 0 1 2992.68 2285)">2024 </text><text fill="#7F7F7F" fill-opacity="1" font-family="Malgun Gothic,Malgun Gothic_MSFontService,sans-serif" font-style="normal" font-variant="normal" font-weight="700" font-stretch="normal" font-size="28" text-anchor="start" direction="ltr" writing-mode="lr-tb" unicode-bidi="normal" text-decoration="none" transform="matrix(1 0 0 1 3075.18 2285)">년</text><path d="M3179 2269 3338.63 2271.25" stroke="#D0CECE" stroke-width="2.29167" stroke-linecap="butt" stroke-linejoin="miter" stroke-miterlimit="8" stroke-opacity="1" fill="none" fill-rule="evenodd"/></g></g></svg>