<svg width="1233" height="614" xmlns="http://www.w3.org/2000/svg" xmlns:xlink="http://www.w3.org/1999/xlink" xml:space="preserve" overflow="hidden"><defs><filter id="fx0" x="-10%" y="-10%" width="120%" height="120%" filterUnits="userSpaceOnUse" primitiveUnits="userSpaceOnUse"><feComponentTransfer color-interpolation-filters="sRGB"><feFuncR type="discrete" tableValues="0.000000 0.000000"/><feFuncG type="discrete" tableValues="0.000000 0.000000"/><feFuncB type="discrete" tableValues="0.000000 0.000000"/><feFuncA type="linear" slope="0.270588" intercept="0.000000"/></feComponentTransfer><feGaussianBlur stdDeviation="6.111111 6.111111"/></filter><filter id="fx1" x="-10%" y="-10%" width="120%" height="120%" filterUnits="userSpaceOnUse" primitiveUnits="userSpaceOnUse"><feComponentTransfer color-interpolation-filters="sRGB"><feFuncR type="discrete" tableValues="0.000000 0.000000"/><feFuncG type="discrete" tableValues="0.000000 0.000000"/><feFuncB type="discrete" tableValues="0.000000 0.000000"/><feFuncA type="linear" slope="0.270588" intercept="0.000000"/></feComponentTransfer><feGaussianBlur stdDeviation="6.111111 6.111111"/></filter><filter id="fx2" x="-10%" y="-10%" width="120%" height="120%" filterUnits="userSpaceOnUse" primitiveUnits="userSpaceOnUse"><feComponentTransfer color-interpolation-filters="sRGB"><feFuncR type="discrete" tableValues="0.000000 0.000000"/><feFuncG type="discrete" tableValues="0.000000 0.000000"/><feFuncB type="discrete" tableValues="0.000000 0.000000"/><feFuncA type="linear" slope="0.270588" intercept="0.000000"/></feComponentTransfer><feGaussianBlur stdDeviation="6.111111 6.111111"/></filter><filter id="fx3" x="-10%" y="-10%" width="120%" height="120%" filterUnits="userSpaceOnUse" primitiveUnits="userSpaceOnUse"><feComponentTransfer color-interpolation-filters="sRGB"><feFuncR type="discrete" tableValues="0.000000 0.000000"/><feFuncG type="discrete" tableValues="0.000000 0.000000"/><feFuncB type="discrete" tableValues="0.000000 0.000000"/><feFuncA type="linear" slope="0.270588" intercept="0.000000"/></feComponentTransfer><feGaussianBlur stdDeviation="6.111111 6.111111"/></filter><clipPath id="clip4"><path d="M3291 1610C3235.77 1610 3191 1653.88 3191 1708 3191 1762.12 3235.77 1806 3291 1806 3346.23 1806 3391 1762.12 3391 1708 3391 1653.88 3346.23 1610 3291 1610ZM3153 1572 4386 1572 4386 2186 3153 2186Z" fill-rule="evenodd" clip-rule="evenodd"/></clipPath><clipPath id="clip5"><rect x="1.66675" y="2.00012" width="238.667" height="234.667"/></clipPath><clipPath id="clip6"><path d="M3291.5 1645C3255.33 1645 3226 1673.88 3226 1709.5 3226 1745.12 3255.33 1774 3291.5 1774 3327.67 1774 3357 1745.12 3357 1709.5 3357 1673.88 3327.67 1645 3291.5 1645ZM3153 1572 4386 1572 4386 2186 3153 2186Z" fill-rule="evenodd" clip-rule="evenodd"/></clipPath><clipPath id="clip7"><rect x="1.66675" y="1.99988" width="169.667" height="167.667"/></clipPath><clipPath id="clip8"><path d="M3291 1951C3235.77 1951 3191 1994.88 3191 2049 3191 2103.12 3235.77 2147 3291 2147 3346.23 2147 3391 2103.12 3391 2049 3391 1994.88 3346.23 1951 3291 1951ZM3153 1572 4386 1572 4386 2186 3153 2186Z" fill-rule="evenodd" clip-rule="evenodd"/></clipPath><clipPath id="clip9"><rect x="1.66675" y="2.00012" width="238.667" height="234.667"/></clipPath><clipPath id="clip10"><path d="M3291.5 1985C3255.33 1985 3226 2013.88 3226 2049.5 3226 2085.12 3255.33 2114 3291.5 2114 3327.67 2114 3357 2085.12 3357 2049.5 3357 2013.88 3327.67 1985 3291.5 1985ZM3153 1572 4386 1572 4386 2186 3153 2186Z" fill-rule="evenodd" clip-rule="evenodd"/></clipPath><clipPath id="clip11"><rect x="1.66675" y="2.00012" width="169.667" height="167.667"/></clipPath></defs><g transform="translate(-3153 -1572)"><g><g clip-path="url(#clip4)"><g clip-path="url(#clip5)" filter="url(#fx0)" transform="translate(3170 1607)"><g><g><path d="M21 119.333C21 65.2096 65.7715 21.3335 121 21.3335 176.229 21.3335 221 65.2096 221 119.333 221 173.457 176.229 217.333 121 217.333 65.7715 217.333 21 173.457 21 119.333Z" stroke="#D0CECE" stroke-width="2" stroke-linecap="butt" stroke-linejoin="miter" stroke-miterlimit="8" stroke-opacity="1" fill="#DEEBF7" fill-rule="evenodd" fill-opacity="1"/></g></g></g></g><path d="M3191 1708C3191 1653.88 3235.77 1610 3291 1610 3346.23 1610 3391 1653.88 3391 1708 3391 1762.12 3346.23 1806 3291 1806 3235.77 1806 3191 1762.12 3191 1708Z" stroke="#D0CECE" stroke-width="2.29167" stroke-linecap="butt" stroke-linejoin="miter" stroke-miterlimit="8" stroke-opacity="1" fill="#DEEBF7" fill-rule="evenodd" fill-opacity="1"/><g clip-path="url(#clip6)"><g clip-path="url(#clip7)" filter="url(#fx1)" transform="translate(3205 1642)"><g><g><path d="M21 85.8333C21 50.2108 50.3253 21.3331 86.5 21.3331 122.675 21.3331 152 50.2108 152 85.8333 152 121.456 122.675 150.333 86.5 150.333 50.3253 150.333 21 121.456 21 85.8333Z" stroke="#D0CECE" stroke-width="2" stroke-linecap="butt" stroke-linejoin="miter" stroke-miterlimit="8" stroke-opacity="1" fill="#FFFFFF" fill-rule="evenodd" fill-opacity="1"/></g></g></g></g><path d="M3226 1709.5C3226 1673.88 3255.33 1645 3291.5 1645 3327.67 1645 3357 1673.88 3357 1709.5 3357 1745.12 3327.67 1774 3291.5 1774 3255.33 1774 3226 1745.12 3226 1709.5Z" stroke="#D0CECE" stroke-width="2.29167" stroke-linecap="butt" stroke-linejoin="miter" stroke-miterlimit="8" stroke-opacity="1" fill="#FFFFFF" fill-rule="evenodd" fill-opacity="1"/><path d="M3158 1707C3158 1634.65 3217.99 1576 3292 1576 3366.01 1576 3426 1634.65 3426 1707 3426 1779.35 3366.01 1838 3292 1838 3217.99 1838 3158 1779.35 3158 1707Z" stroke="#D0CECE" stroke-width="2.29167" stroke-linecap="butt" stroke-linejoin="miter" stroke-miterlimit="8" stroke-opacity="1" fill="none" fill-rule="evenodd"/><text fill="#595959" fill-opacity="1" font-family="Malgun Gothic,Malgun Gothic_MSFontService,sans-serif" font-style="normal" font-variant="normal" font-weight="400" font-stretch="normal" font-size="37" text-anchor="start" direction="ltr" writing-mode="lr-tb" unicode-bidi="normal" text-decoration="none" transform="matrix(1 0 0 1 3652.21 1728)">서울시</text><text fill="#595959" fill-opacity="1" font-family="Malgun Gothic,Malgun Gothic_MSFontService,sans-serif" font-style="normal" font-variant="normal" font-weight="400" font-stretch="normal" font-size="37" text-anchor="start" direction="ltr" writing-mode="lr-tb" unicode-bidi="normal" text-decoration="none" transform="matrix(1 0 0 1 3771.38 1728)">양천구</text><text fill="#595959" fill-opacity="1" font-family="Malgun Gothic,Malgun Gothic_MSFontService,sans-serif" font-style="normal" font-variant="normal" font-weight="400" font-stretch="normal" font-size="37" text-anchor="start" direction="ltr" writing-mode="lr-tb" unicode-bidi="normal" text-decoration="none" transform="matrix(1 0 0 1 3890.55 1728)">목동</text><text fill="#595959" fill-opacity="1" font-family="Times New Roman,Times New Roman_MSFontService,sans-serif" font-style="normal" font-variant="normal" font-weight="400" font-stretch="normal" font-size="37" text-anchor="start" direction="ltr" writing-mode="lr-tb" unicode-bidi="normal" text-decoration="none" transform="matrix(1 0 0 1 3963.88 1728)">, </text><text fill="#595959" fill-opacity="1" font-family="Malgun Gothic,Malgun Gothic_MSFontService,sans-serif" font-style="normal" font-variant="normal" font-weight="400" font-stretch="normal" font-size="37" text-anchor="start" direction="ltr" writing-mode="lr-tb" unicode-bidi="normal" text-decoration="none" transform="matrix(1 0 0 1 3982.21 1728)">개소</text><path d="M3585 1709C3585 1704.58 3588.58 1701 3593 1701 3597.42 1701 3601 1704.58 3601 1709 3601 1713.42 3597.42 1717 3593 1717 3588.58 1717 3585 1713.42 3585 1709Z" fill="#4472C4" fill-rule="evenodd" fill-opacity="1"/><text fill="#7F7F7F" fill-opacity="1" font-family="Times New Roman,Times New Roman_MSFontService,sans-serif" font-style="normal" font-variant="normal" font-weight="700" font-stretch="normal" font-size="37" text-anchor="start" direction="ltr" writing-mode="lr-tb" unicode-bidi="normal" text-decoration="none" transform="matrix(1 0 0 1 3239.47 1718)">2012 </text><text fill="#7F7F7F" fill-opacity="1" font-family="Malgun Gothic,Malgun Gothic_MSFontService,sans-serif" font-style="normal" font-variant="normal" font-weight="700" font-stretch="normal" font-size="28" text-anchor="start" direction="ltr" writing-mode="lr-tb" unicode-bidi="normal" text-decoration="none" transform="matrix(1 0 0 1 3321.97 1718)">년</text><g clip-path="url(#clip8)"><g clip-path="url(#clip9)" filter="url(#fx2)" transform="translate(3170 1948)"><g><g><path d="M21 119.333C21 65.2096 65.7715 21.3335 121 21.3335 176.229 21.3335 221 65.2096 221 119.333 221 173.457 176.229 217.333 121 217.333 65.7715 217.333 21 173.457 21 119.333Z" stroke="#D0CECE" stroke-width="2" stroke-linecap="butt" stroke-linejoin="miter" stroke-miterlimit="8" stroke-opacity="1" fill="#DEEBF7" fill-rule="evenodd" fill-opacity="1"/></g></g></g></g><path d="M3191 2049C3191 1994.88 3235.77 1951 3291 1951 3346.23 1951 3391 1994.88 3391 2049 3391 2103.12 3346.23 2147 3291 2147 3235.77 2147 3191 2103.12 3191 2049Z" stroke="#D0CECE" stroke-width="2.29167" stroke-linecap="butt" stroke-linejoin="miter" stroke-miterlimit="8" stroke-opacity="1" fill="#DEEBF7" fill-rule="evenodd" fill-opacity="1"/><g clip-path="url(#clip10)"><g clip-path="url(#clip11)" filter="url(#fx3)" transform="translate(3205 1982)"><g><g><path d="M21 85.8335C21 50.2111 50.3253 21.3335 86.5 21.3335 122.675 21.3335 152 50.2111 152 85.8335 152 121.456 122.675 150.333 86.5 150.333 50.3253 150.333 21 121.456 21 85.8335Z" stroke="#D0CECE" stroke-width="2" stroke-linecap="butt" stroke-linejoin="miter" stroke-miterlimit="8" stroke-opacity="1" fill="#FFFFFF" fill-rule="evenodd" fill-opacity="1"/></g></g></g></g><path d="M3226 2049.5C3226 2013.88 3255.33 1985 3291.5 1985 3327.67 1985 3357 2013.88 3357 2049.5 3357 2085.12 3327.67 2114 3291.5 2114 3255.33 2114 3226 2085.12 3226 2049.5Z" stroke="#D0CECE" stroke-width="2.29167" stroke-linecap="butt" stroke-linejoin="miter" stroke-miterlimit="8" stroke-opacity="1" fill="#FFFFFF" fill-rule="evenodd" fill-opacity="1"/><path d="M3158 2047C3158 1974.65 3217.99 1916 3292 1916 3366.01 1916 3426 1974.65 3426 2047 3426 2119.35 3366.01 2178 3292 2178 3217.99 2178 3158 2119.35 3158 2047Z" stroke="#D0CECE" stroke-width="2.29167" stroke-linecap="butt" stroke-linejoin="miter" stroke-miterlimit="8" stroke-opacity="1" fill="none" fill-rule="evenodd"/><text fill="#595959" fill-opacity="1" font-family="Malgun Gothic,Malgun Gothic_MSFontService,sans-serif" font-style="normal" font-variant="normal" font-weight="400" font-stretch="normal" font-size="37" text-anchor="start" direction="ltr" writing-mode="lr-tb" unicode-bidi="normal" text-decoration="none" transform="matrix(1 0 0 1 3652.21 2068)">패쇄</text><path d="M3585 2049C3585 2044.58 3588.58 2041 3593 2041 3597.42 2041 3601 2044.58 3601 2049 3601 2053.42 3597.42 2057 3593 2057 3588.58 2057 3585 2053.42 3585 2049Z" fill="#4472C4" fill-rule="evenodd" fill-opacity="1"/><text fill="#7F7F7F" fill-opacity="1" font-family="Times New Roman,Times New Roman_MSFontService,sans-serif" font-style="normal" font-variant="normal" font-weight="700" font-stretch="normal" font-size="37" text-anchor="start" direction="ltr" writing-mode="lr-tb" unicode-bidi="normal" text-decoration="none" transform="matrix(1 0 0 1 3239.47 2063)">2020 </text><text fill="#7F7F7F" fill-opacity="1" font-family="Malgun Gothic,Malgun Gothic_MSFontService,sans-serif" font-style="normal" font-variant="normal" font-weight="700" font-stretch="normal" font-size="28" text-anchor="start" direction="ltr" writing-mode="lr-tb" unicode-bidi="normal" text-decoration="none" transform="matrix(1 0 0 1 3321.97 2063)">년</text><path d="M3426 2047 3585.63 2049.25" stroke="#D0CECE" stroke-width="2.29167" stroke-linecap="butt" stroke-linejoin="miter" stroke-miterlimit="8" stroke-opacity="1" fill="none" fill-rule="evenodd"/><path d="M3426 1707 3585.63 1709.25" stroke="#D0CECE" stroke-width="2.29167" stroke-linecap="butt" stroke-linejoin="miter" stroke-miterlimit="8" stroke-opacity="1" fill="none" fill-rule="evenodd"/></g></g></svg>